<svg xmlns="http://www.w3.org/2000/svg" xmlns:xlink="http://www.w3.org/1999/xlink" version="1.1" x="0px" y="0px" viewBox="0 0 100 125" enable-background="new 0 0 100 100" xml:space="preserve"><path d="M52.444,47.053c-0.61-0.629-1.361-1.188-2.253-1.677c-0.892-0.487-2.118-1.021-3.682-1.593  c-1.563-0.574-2.671-1.182-3.324-1.823c-0.653-0.641-0.979-1.493-0.979-2.555c0-1.185,0.33-2.095,0.988-2.729  c0.66-0.635,1.576-0.951,2.748-0.951c1.185,0,2.121,0.441,2.812,1.327c0.689,0.886,1.034,2.097,1.034,3.636h4.434  c0-2.393-0.58-4.338-1.74-5.832c-1.158-1.496-2.802-2.396-4.927-2.702v-4.03h-2.931v3.993c-2.112,0.243-3.785,1.02-5.02,2.325  c-1.234,1.307-1.85,2.975-1.85,5c0,2.992,1.422,5.252,4.268,6.777c0.854,0.464,2.051,0.969,3.59,1.512s2.639,1.153,3.298,1.832  c0.659,0.678,0.989,1.534,0.989,2.572c0,1.111-0.364,2.003-1.091,2.674c-0.727,0.672-1.786,1.008-3.178,1.008  c-1.417,0-2.513-0.422-3.288-1.264c-0.775-0.843-1.163-2.033-1.163-3.572h-4.45c0,2.418,0.65,4.359,1.95,5.825  s3.159,2.332,5.577,2.602v3.553h2.912v-3.571c2.26-0.231,4.021-0.988,5.283-2.271c1.264-1.282,1.896-2.954,1.896-5.02  c0-1.099-0.164-2.057-0.494-2.875C53.524,48.406,53.054,47.682,52.444,47.053z M68.179,65.354c4.644-5.299,7.467-12.23,7.467-19.813  c0-16.602-13.506-30.107-30.106-30.107c-16.6,0-30.105,13.506-30.105,30.107s13.506,30.107,30.105,30.107  c7.582,0,14.513-2.824,19.813-7.467l16.385,16.385l2.828-2.828L68.179,65.354z M45.539,71.648  c-14.396,0-26.105-11.711-26.105-26.107s11.711-26.107,26.105-26.107c14.396,0,26.106,11.711,26.106,26.107  S59.935,71.648,45.539,71.648z"/><text x="0" y="115" fill="#000000" font-size="5px" font-weight="bold" font-family="'Helvetica Neue', Helvetica, Arial-Unicode, Arial, Sans-serif">Created by Sergey Demushkin</text><text x="0" y="120" fill="#000000" font-size="5px" font-weight="bold" font-family="'Helvetica Neue', Helvetica, Arial-Unicode, Arial, Sans-serif">from the Noun Project</text></svg>